<svg width="17" height="9" viewBox="0 0 17 9" fill="none" xmlns="http://www.w3.org/2000/svg">
<path id="Vector" fill-rule="evenodd" clip-rule="evenodd" d="M0.379456 4.14692C0.379456 3.948 0.458473 3.75724 0.599125 3.61659C0.739778 3.47594 0.930543 3.39692 1.12946 3.39692H13.7195L11.6195 1.44692C11.5472 1.37994 11.4889 1.2994 11.4478 1.20988C11.4067 1.12037 11.3836 1.02363 11.3799 0.925201C11.3762 0.826771 11.3919 0.728574 11.4262 0.636215C11.4604 0.543856 11.5125 0.459144 11.5795 0.386917C11.7147 0.241048 11.9024 0.154886 12.1012 0.147384C12.1996 0.14367 12.2978 0.159379 12.3902 0.193615C12.4825 0.227851 12.5672 0.279943 12.6395 0.346917L16.1395 3.59692C16.2152 3.66712 16.2756 3.75221 16.3169 3.84686C16.3582 3.9415 16.3796 4.04365 16.3796 4.14692C16.3796 4.25018 16.3582 4.35234 16.3169 4.44698C16.2756 4.54162 16.2152 4.62671 16.1395 4.69692L12.6395 7.94692C12.4936 8.08218 12.3 8.15395 12.1012 8.14645C11.9024 8.13895 11.7147 8.05279 11.5795 7.90692C11.4442 7.76105 11.3724 7.56742 11.3799 7.36863C11.3874 7.16984 11.4736 6.98218 11.6195 6.84692L13.7195 4.89692H1.12946C0.930543 4.89692 0.739778 4.8179 0.599125 4.67725C0.458473 4.53659 0.379456 4.34583 0.379456 4.14692Z" fill="#4B360A" style="fill:#4B360A;fill:color(display-p3 0.2944 0.2114 0.0392);fill-opacity:1;"/>
</svg>
