<svg width="15" height="19" viewBox="0 0 15 19" fill="none" xmlns="http://www.w3.org/2000/svg">
<path fill-rule="evenodd" clip-rule="evenodd" d="M6.75009 0.270672C6.02075 0.270672 5.32127 0.560403 4.80555 1.07613C4.28982 1.59185 4.00009 2.29133 4.00009 3.02067V3.46367C3.20509 3.54067 2.41609 3.63967 1.63509 3.76167C1.53634 3.77512 1.44126 3.80812 1.35541 3.85874C1.26956 3.90936 1.19465 3.97658 1.13508 4.05648C1.0755 4.13638 1.03245 4.22735 1.00843 4.32407C0.984414 4.4208 0.979916 4.52134 0.9952 4.61983C1.01048 4.71831 1.04524 4.81276 1.09745 4.89766C1.14965 4.98256 1.21825 5.0562 1.29924 5.11428C1.38023 5.17236 1.47199 5.21372 1.56914 5.23594C1.6663 5.25815 1.76691 5.26078 1.86509 5.24367L2.01409 5.22167L2.85509 15.7397C2.91015 16.4289 3.22279 17.072 3.73075 17.5411C4.23871 18.0101 4.9047 18.2706 5.59609 18.2707H10.4031C11.0945 18.2709 11.7606 18.0106 12.2687 17.5418C12.7769 17.0729 13.0898 16.4299 13.1451 15.7407L13.9861 5.22067L14.1351 5.24367C14.3298 5.2702 14.5271 5.21925 14.6847 5.10179C14.8422 4.98432 14.9473 4.80973 14.9775 4.61556C15.0076 4.42138 14.9603 4.22313 14.8458 4.06345C14.7313 3.90377 14.5587 3.79541 14.3651 3.76167C13.5798 3.63946 12.7911 3.54008 12.0001 3.46367V3.02067C12.0001 2.29133 11.7104 1.59185 11.1946 1.07613C10.6789 0.560403 9.97944 0.270672 9.25009 0.270672H6.75009ZM8.00009 3.27067C8.84009 3.27067 9.67309 3.29567 10.5001 3.34567V3.02067C10.5001 2.33067 9.94009 1.77067 9.25009 1.77067H6.75009C6.06009 1.77067 5.50009 2.33067 5.50009 3.02067V3.34567C6.32709 3.29567 7.16009 3.27067 8.00009 3.27067ZM6.58009 6.99067C6.57213 6.79176 6.48549 6.60415 6.33921 6.46913C6.19293 6.3341 5.999 6.26272 5.80009 6.27067C5.60118 6.27863 5.41357 6.36528 5.27855 6.51156C5.14352 6.65783 5.07213 6.85176 5.08009 7.05067L5.38009 14.5507C5.38403 14.6492 5.40733 14.7459 5.44866 14.8354C5.48999 14.9249 5.54854 15.0054 5.62097 15.0722C5.6934 15.1391 5.77829 15.191 5.8708 15.2251C5.9633 15.2591 6.0616 15.2746 6.16009 15.2707C6.25858 15.2667 6.35533 15.2434 6.44482 15.2021C6.53431 15.1608 6.61478 15.1022 6.68163 15.0298C6.74849 14.9574 6.80043 14.8725 6.83448 14.78C6.86853 14.6875 6.88403 14.5892 6.88009 14.4907L6.58009 6.99067ZM10.9201 7.05067C10.924 6.95218 10.9085 6.85388 10.8745 6.76138C10.8404 6.66887 10.7885 6.58398 10.7216 6.51156C10.6548 6.43913 10.5743 6.38057 10.4848 6.33924C10.3953 6.29791 10.2986 6.27461 10.2001 6.27067C10.0012 6.26272 9.80725 6.3341 9.66097 6.46913C9.5147 6.60415 9.42805 6.79176 9.42009 6.99067L9.12009 14.4907C9.11615 14.5892 9.13165 14.6875 9.1657 14.78C9.19975 14.8725 9.25169 14.9574 9.31855 15.0298C9.38541 15.1022 9.46588 15.1608 9.55536 15.2021C9.64485 15.2434 9.7416 15.2667 9.84009 15.2707C9.93858 15.2746 10.0369 15.2591 10.1294 15.2251C10.2219 15.191 10.3068 15.1391 10.3792 15.0722C10.4516 15.0054 10.5102 14.9249 10.5515 14.8354C10.5929 14.7459 10.6162 14.6492 10.6201 14.5507L10.9201 7.05067Z" fill="#6D6D73"/>
</svg>
